<?xml version="1.0" encoding="utf-8"?>
<!-- Generator: Adobe Illustrator 27.6.1, SVG Export Plug-In . SVG Version: 6.00 Build 0)  -->
<svg version="1.1" id="Layer_1" xmlns="http://www.w3.org/2000/svg" xmlns:xlink="http://www.w3.org/1999/xlink" x="0px" y="0px"
	 viewBox="0 0 556.8 215.7" style="enable-background:new 0 0 556.8 215.7;" xml:space="preserve">
<style type="text/css">
	.st0{opacity:0.5;fill:#F37272;}
	.st1{fill:#23134A;}
	.st2{fill:#FFFFFF;}
	.st3{fill:#F37272;}
</style>
<g>
	<path class="st0" d="M90.2,190.6c0,13.3-20,24.2-44.7,24.2c-24.7,0-44.7-10.8-44.7-24.2c0-13.3,20-24.2,44.7-24.2
		C70.2,166.5,90.2,177.3,90.2,190.6z"/>
	<path class="st0" d="M466.4,190.6c0,13.3,20,24.2,44.7,24.2c24.7,0,44.7-10.8,44.7-24.2c0-13.3-20-24.2-44.7-24.2
		C486.4,166.5,466.4,177.3,466.4,190.6z"/>
	<circle class="st1" cx="113.4" cy="98.5" r="97.2"/>
	<path class="st1" d="M163,125.8c-23.8,9.2-47.3,8-70.4-2.6c-28.1-12.9-50.4-38.1-76.4-23.6c0.6,53.2,43.8,96.1,97.1,96.1
		c51.7,0,93.8-40.3,96.9-91.2C194.4,112,178.7,119.7,163,125.8z"/>
	<path class="st2" d="M178.5,61.2c0,19.4-15.7,35.1-35.1,35.1c-19.4,0-35.1-15.7-35.1-35.1c0-19.4,15.7-35.1,35.1-35.1
		C162.8,26.1,178.5,41.8,178.5,61.2z"/>
	<path class="st2" d="M82.6,133.6c0,10.4-8.4,18.8-18.8,18.8c-10.4,0-18.8-8.4-18.8-18.8c0-10.4,8.4-18.8,18.8-18.8
		C74.2,114.8,82.6,123.2,82.6,133.6z"/>
	<path class="st2" d="M79.3,163.3c0-6.1,4.9-11,11-11c6.1,0,11,4.9,11,11c0,6.1-4.9,11-11,11C84.2,174.2,79.3,169.3,79.3,163.3z"/>
	<circle class="st1" cx="443.3" cy="98.5" r="97.2"/>
	<path class="st1" d="M476.2,139.6c-50.4,11.4-84.2-22-123.5-46.1c-2-1.3-4.1-2.4-6.1-3.5c-0.2,2.8-0.4,5.7-0.4,8.5
		c0,53.7,43.5,97.2,97.2,97.2c51.1,0,93-39.5,96.8-89.7C518.7,117.5,500.7,134.1,476.2,139.6z"/>
	<path class="st2" d="M508.5,61.2c0,19.4-15.7,35.1-35.1,35.1c-19.4,0-35.1-15.7-35.1-35.1c0-19.4,15.7-35.1,35.1-35.1
		C492.8,26.1,508.5,41.8,508.5,61.2z"/>
	<path class="st2" d="M412.6,133.6c0,10.4-8.4,18.8-18.8,18.8c-10.4,0-18.8-8.4-18.8-18.8c0-10.4,8.4-18.8,18.8-18.8
		C404.2,114.8,412.6,123.2,412.6,133.6z"/>
	<path class="st2" d="M409.2,163.3c0-6.1,4.9-11,11-11c6.1,0,11,4.9,11,11c0,6.1-4.9,11-11,11C414.1,174.2,409.2,169.3,409.2,163.3z
		"/>
	<path class="st3" d="M328.3,151.3c-7.5-5.9-17.7,6-50,6s-42.5-11.9-50-6c-7.5,5.9-1.2,51.5,50,51.5S335.8,157.2,328.3,151.3z"/>
</g>
</svg>
